<svg xmlns="http://www.w3.org/2000/svg" width="215" height="74"><path d="M52.405 74h-.021c-6.82-.018-12.333-5.541-12.339-12.359v-.135c.067-6.773 5.574-12.236 12.357-12.238 6.825.002 12.355 5.535 12.361 12.361v.041c-.017 6.81-5.542 12.33-12.358 12.33zm-.014-8.111h.018c2.338 0 4.241-1.9 4.245-4.227v-.037c-.001-2.342-1.902-4.242-4.245-4.246-2.343.004-4.24 1.904-4.243 4.246v.108c.042 2.3 1.921 4.152 4.225 4.156zm102.191 8.111h-.025c-6.82-.012-12.334-5.541-12.335-12.359v-.012c.001-6.83 5.532-12.359 12.362-12.361 6.827.002 12.352 5.529 12.359 12.357v.045c-.021 6.818-5.546 12.33-12.361 12.33zm-.018-8.115h.018c2.335.004 4.245-1.896 4.245-4.223v-.037c0-2.342-1.901-4.242-4.243-4.248-2.342.006-4.242 1.906-4.248 4.248v.121c.054 2.293 1.93 4.137 4.228 4.139zm45.875-64.881l-39.55.067-25.557.064-25.578.049-24.254.065-24.245.05-50.767-.195c-1.725.126-3.113 1.239-3.189 2.853l-1.293 29.174-2.902 2.233v14.267l.049 10.953c-.052 2.906 2.142 4.457 4.325 4.52h31.407c-.28-1.105-.432-2.262-.432-3.457l.003-.152c.074-7.648 6.29-13.82 13.949-13.822 7.709.002 13.951 6.248 13.953 13.953v.049c0 1.18-.151 2.328-.432 3.426h41.079l34.079.094c-.295-1.135-.454-2.326-.454-3.553v-.02c0-7.705 6.244-13.949 13.953-13.949s13.945 6.244 13.948 13.949v.053c-.003 1.25-.171 2.461-.483 3.609l43.582-9.184.265-45.066c.071-5.119-6.317-10.182-11.456-10.03zm-170.218 53.443c0 1.721-1.39 3.109-3.11 3.109h-7.761c-1.723 0-3.11-1.389-3.11-3.109v-39.168c0-1.725 1.39-3.111 3.11-3.111h7.758c1.724 0 3.11 1.388 3.11 3.111v39.168h.003zm44.992-26.536c0 1.724-1.385 3.111-3.111 3.111h-29.414c-1.721 0-3.105-1.387-3.105-3.111v-12.764c0-1.724 1.385-3.109 3.105-3.109h29.413c1.727 0 3.111 1.388 3.111 3.109v12.764zm43.147 0c0 1.724-1.386 3.111-3.111 3.111h-29.409c-1.725 0-3.11-1.387-3.11-3.111v-12.764c0-1.724 1.386-3.109 3.11-3.109h29.409c1.726 0 3.111 1.388 3.111 3.109v12.764zm43 0c0 1.724-1.386 3.111-3.11 3.111h-29.394c-1.72 0-3.11-1.387-3.11-3.111v-12.764c0-1.724 1.391-3.109 3.11-3.109h29.394c1.725 0 3.11 1.388 3.11 3.109v12.764zm42.762 0c0 1.724-1.39 3.111-3.112 3.111h-29.409c-1.722 0-3.113-1.387-3.113-3.111v-12.764c0-1.724 1.392-3.109 3.113-3.109h23.531c5.267 0 8.992 3.252 8.992 6.562v9.311h-.002z" fill="#350805"/></svg>