<svg xmlns="http://www.w3.org/2000/svg" width="100" height="100" viewBox="10 0 100 100" enable-background="new 10 0 100 100"><g fill="#666"><path d="M17.244 84.538c0-.074.049-.123.124-.123h3.267c1.825 0 2.675.899 2.675 2.231 0 .912-.419 1.479-.974 1.787v.024c.555.209 1.122.899 1.122 1.897 0 1.652-1.097 2.441-2.91 2.441h-3.181c-.074 0-.124-.049-.124-.123l.001-8.134zm3.169 3.305c.69 0 1.097-.37 1.097-.985 0-.617-.407-.975-1.097-.975h-1.282l-.074.074v1.812l.074.073h1.282zm-1.282 3.489h1.381c.739 0 1.134-.395 1.134-1.048 0-.642-.395-1.048-1.134-1.048h-1.381l-.074.074v1.947l.074.075zM26.678 92.799c-.074 0-.123-.049-.123-.123v-3.218l-2.479-4.919c-.024-.062 0-.123.086-.123h1.603c.086 0 .147.037.185.123l1.517 3.059h.037l1.517-3.059c.037-.086.099-.123.185-.123h1.554c.086 0 .123.062.086.123l-2.478 4.919v3.218c0 .074-.049.123-.123.123h-1.567zM35.055 84.538c0-.074.049-.123.123-.123h1.208c.074 0 .123.049.123.123v8.138c0 .074-.049.123-.123.123h-1.208c-.074 0-.123-.049-.123-.123v-8.138zM38.44 84.538c0-.074.049-.123.123-.123h1.097c.111 0 .173.037.21.123l2.306 5.166h.049l2.269-5.166c.037-.086.099-.123.21-.123h1.085c.074 0 .123.049.123.123v8.138c0 .074-.049.123-.123.123h-1.073c-.074 0-.124-.049-.124-.123v-5.129h-.049l-1.775 3.945c-.05.111-.124.16-.234.16h-.715c-.111 0-.185-.049-.234-.16l-1.775-3.945h-.05v5.129c0 .074-.049.123-.123.123h-1.073c-.074 0-.123-.049-.123-.123l-.001-8.138zM47.987 92.799c-.074 0-.123-.049-.123-.123v-8.138c0-.074.049-.123.123-.123h3.144c1.627 0 2.762 1.048 2.762 2.603 0 1.564-1.134 2.613-2.762 2.613h-1.738l-.074.074v2.972c0 .074-.049.123-.123.123l-1.209-.001zm4.451-5.781c0-.766-.53-1.295-1.393-1.295h-1.652l-.074.073v2.44l.074.074h1.652c.863.001 1.393-.517 1.393-1.292zM55.364 84.538c0-.074.049-.123.123-.123h1.208c.074 0 .123.049.123.123v6.88l.074.074h3.846c.074 0 .123.049.123.123v1.061c0 .074-.049.123-.123.123h-5.251c-.074 0-.123-.049-.123-.123v-8.138zM62.27 84.538c0-.074.049-.123.123-.123h1.209c.073 0 .123.049.123.123v8.138c0 .074-.05.123-.123.123h-1.209c-.074 0-.123-.049-.123-.123v-8.138zM65.427 88.607c0-1.332.05-1.75.222-2.27.433-1.369 1.492-2.059 2.91-2.059 1.344 0 2.354.689 2.836 1.8.024.062 0 .123-.062.147l-1.048.506c-.074.037-.136 0-.16-.062-.271-.592-.739-1.085-1.565-1.085-.802 0-1.271.431-1.504 1.108-.111.346-.147.679-.147 1.912 0 1.232.036 1.565.147 1.91.233.678.702 1.109 1.504 1.109.826 0 1.295-.493 1.565-1.085.024-.062.086-.099.16-.062l1.048.504c.062.025.087.086.062.148-.48 1.11-1.492 1.801-2.836 1.801-1.418 0-2.479-.69-2.91-2.06-.172-.512-.222-.931-.222-2.262zM75.169 84.538c.024-.074.074-.123.16-.123h1.134c.087 0 .137.049.161.123l2.835 8.138c.025.074 0 .123-.086.123h-1.208c-.087 0-.136-.037-.16-.123l-.556-1.628h-3.156l-.555 1.628c-.024.086-.073.123-.16.123h-1.195c-.087 0-.111-.049-.087-.123l2.873-8.138zm1.837 5.215l-1.109-3.255h-.037l-1.121 3.255h2.267zM81.826 92.799c-.074 0-.123-.049-.123-.123v-6.88l-.074-.073h-2.193c-.074 0-.123-.05-.123-.123v-1.062c0-.074.049-.123.123-.123h5.991c.073 0 .123.049.123.123v1.062c0 .073-.05.123-.123.123h-2.194l-.073.073v6.88c0 .074-.05.123-.123.123h-1.211zM86.943 84.538c0-.074.05-.123.123-.123h1.209c.074 0 .123.049.123.123v8.138c0 .074-.049.123-.123.123h-1.209c-.073 0-.123-.049-.123-.123v-8.138zM90.323 90.913c-.173-.519-.224-.986-.224-2.306s.051-1.789.224-2.307c.431-1.332 1.517-2.021 2.959-2.021 1.454 0 2.538.689 2.971 2.021.173.518.222.986.222 2.307 0 1.319-.049 1.787-.222 2.306-.433 1.332-1.517 2.022-2.971 2.022-1.442.001-2.528-.691-2.959-2.022zm4.525-.383c.1-.308.148-.74.148-1.923 0-1.196-.051-1.615-.148-1.924-.234-.678-.728-1.097-1.564-1.097-.826 0-1.319.419-1.555 1.097-.099.309-.147.729-.147 1.924 0 1.184.05 1.615.147 1.923.234.678.729 1.097 1.555 1.097.836 0 1.329-.419 1.564-1.097zM98.199 84.538c0-.074.049-.123.123-.123h1.135c.1 0 .16.037.209.123l3.415 5.782h.05v-5.782c0-.074.049-.123.123-.123h1.072c.074 0 .124.049.124.123v8.138c0 .074-.05.123-.124.123h-1.121c-.1 0-.16-.037-.21-.123l-3.429-5.771h-.049v5.771c0 .074-.05.123-.123.123h-1.072c-.074 0-.123-.049-.123-.123v-8.138z"/></g><path fill="#666" d="M38.795 17h10.163v7.099h-10.254v41.803h10.253v7.098h-10.162c-3.783 0-6.4-2.98-6.4-6.766v-10.925c0-3.785-3.155-6.853-7.099-6.853v-6.851c3.943 0 7.099-3.068 7.099-6.852v-10.927c0-3.784 2.617-6.826 6.4-6.826zm48.81 17.753v-10.927c0-3.785-2.617-6.826-6.399-6.826h-10.164v7.099h10.254v41.803h-10.254v7.098h10.164c3.782 0 6.399-2.98 6.399-6.766v-10.925c0-3.785 3.154-6.853 7.099-6.853v-6.851c-3.942 0-7.099-3.068-7.099-6.852z"/></svg>