<svg xmlns="http://www.w3.org/2000/svg" width="1648.619" height="476.476"><g opacity=".25" stroke="#fff" stroke-miterlimit="10" fill="none"><polyline points="1324,327.476 1287,220.714 1210,315.476 1120,300.476 950,291.476 774,161.476 753,45.476 486,111.476 332,55.476 258,161.476 130,72.476 147,164.476 -63,325.476 87,327.476 254,239.476 458,317.476 550,220.714 1029,427.476 1120,300.476 1012,235.476 1207,84.476 1472,254.476 1650,32.476"/><path d="M1447 101.476"/><polyline points="1231,400.976 1210,315.226 1324,327.351 1683,346.414 1447,386.32"/><path d="M1120 300.226"/><polyline points="1447,101.476 1207,84.476 921,137.476 1012,235.476"/><polygon points="1324,327.476 1447,386.476 1289,443.476"/><line x1="1289" y1="443.476" x2="1231" y2="401.476"/><polyline points="1472,254.476 1841,280.476 1447,101.476 1472,254.476 1287,220.714 1012,235.476 950,291.476 1029,427.476 589,331.476 550,220.714 774,161.476 486,111.476 460.473,314.875 258,161.476 147,164.476 254,239.476 176,367.476 87,327.476 -53,371.476"/></g><path opacity=".25" fill="#fff" d="M490.5 111.476c0-2.485-2.015-4.5-4.5-4.5s-4.5 2.015-4.5 4.5c0 2.482 2.015 4.5 4.5 4.5s4.5-2.018 4.5-4.5z"/><circle opacity=".25" fill="#fff" cx="460.473" cy="314.875" r="7.5"/><circle opacity=".25" fill="#fff" cx="950" cy="291.476" r="6.5"/><circle opacity=".25" fill="#fff" cx="1287" cy="220.714" r="6.238"/></svg>