<svg xmlns="http://www.w3.org/2000/svg" width="78" height="153"><path fill="#fff" d="M65.82.444h-53.641c-6.583 0-11.92 5.337-11.92 11.92v128.271c0 6.583 5.337 11.921 11.92 11.921h53.641c6.584 0 11.92-5.338 11.92-11.921v-128.271c0-6.583-5.336-11.92-11.92-11.92zm-32.682 11.898h11.725c.875 0 1.586.711 1.586 1.588s-.711 1.586-1.586 1.586h-11.725c-.877 0-1.589-.709-1.589-1.586s.712-1.588 1.589-1.588zm-6.833-.608c1.044 0 1.893.847 1.893 1.893 0 1.045-.849 1.892-1.893 1.892-1.047 0-1.892-.847-1.892-1.892.001-1.046.848-1.893 1.892-1.893zm12.695 134.39c-4.115 0-7.451-3.333-7.451-7.447 0-4.116 3.336-7.451 7.451-7.451s7.449 3.335 7.449 7.451c0 4.114-3.334 7.447-7.449 7.447zm33.871-20.205h-67.469v-100.339h67.469v100.339z"/></svg>