<svg xmlns="http://www.w3.org/2000/svg" width="120" height="73"><g fill="#350805"><path d="M25.112 59.802c0-3.005-2.414-5.468-5.422-5.468-2.999 0-5.409 2.464-5.409 5.468 0 3.041 2.41 5.505 5.409 5.505 3.008 0 5.417-2.464 5.422-5.505zm-5.425 12.665c-6.895 0-12.492-5.666-12.492-12.665 0-6.966 5.598-12.635 12.492-12.635 6.924 0 12.523 5.669 12.523 12.635 0 6.999-5.599 12.665-12.523 12.665zm-14.837-23.453l.02-10.168c0-4.051 3.562-3.623 3.562-3.623h20.159l9.649-16.508h4.328l-9.651 16.508 5.573 9.528 12.7-.02c4.386-9.105 13.302-8.536 13.302-8.536h53.592v21.647h-4.95c-.463-7.361-7.459-13.201-14.852-13.201-7.391 0-14.406 5.854-14.848 13.201l-48.934.02c-.444-7.372-7.454-13.225-14.85-13.225-7.392 0-14.427 5.853-14.851 13.237l-1.3.012c-1.444 0-2.604-1.186-2.604-2.639v-6.236h3.953l.002.003zm98.892 10.788c0-3.005-2.44-5.468-5.417-5.468-3.002 0-5.434 2.464-5.434 5.468 0 3.041 2.432 5.505 5.434 5.505 2.981 0 5.414-2.464 5.417-5.505zm-5.417 12.665c-6.921 0-12.504-5.666-12.504-12.665 0-6.966 5.577-12.635 12.504-12.635 6.896 0 12.501 5.669 12.501 12.635 0 6.999-5.606 12.665-12.501 12.665z"/><rect x="108.156" y="19.017" width="4.83" height="19.454"/><rect x="62.954" y="19.017" width="4.829" height="19.454"/><polygon points="31.383,20.661 118.117,20.661 116.909,16.737 33.797,16.737"/><path d="M36.677 6.218c2.153 0 3.898 1.744 3.898 3.896 0 2.151-1.745 3.896-3.898 3.896"/></g></svg>