<svg xmlns="http://www.w3.org/2000/svg" width="16" height="16"><path fill="#808080" d="M10.334 7.735c.678 0 1.391-1.112 1.391-2.484 0-.545-.057-.951-.146-1.254-.019-.113-.037-.271-.04-.465l-.008-.29v-.023c0-.378.062-.291-1.197-.291-1.264 0-1.199-.087-1.199.291v.026l-.008.288c-.004.198-.021.36-.041.474-.088.3-.143.704-.143 1.244 0 1.373.709 2.484 1.391 2.484zm0-5.588c1.262 0 1.197.088 1.197-.291 0-1.337-.535-1.842-1.197-1.842-.664 0-1.199.505-1.199 1.842 0 .379-.065.291 1.199.291z"/><path fill="#808080" d="M5.667 15.984c.678 0 1.39-1.11 1.39-2.483 0-.545-.056-.951-.145-1.254-.019-.113-.037-.271-.04-.465l-.008-.289v-.022c0-.38.062-.291-1.197-.291-1.263 0-1.199-.089-1.199.291v.024l-.008.287c-.004.198-.022.36-.041.475-.088.302-.143.705-.143 1.244 0 1.373.709 2.483 1.391 2.483zm0-5.588c1.261 0 1.197.088 1.197-.291 0-1.338-.535-1.841-1.197-1.841-.664 0-1.199.503-1.199 1.841 0 .379-.064.291 1.199.291z"/></svg>