<svg xmlns="http://www.w3.org/2000/svg" width="151" height="82"><path d="M1.603 60.036v4.092c0 6.779 10.885 11.928 22.388 12.102.821 3.084 3.605 5.357 6.945 5.357 3.338 0 6.115-2.211 6.943-5.369h8.652c.826 3.158 3.605 5.35 6.938 5.35 3.339 0 6.115-2.191 6.942-5.35h38.521c.827 3.158 3.604 5.35 6.939 5.35 3.338 0 6.114-2.191 6.939-5.35h8.654c.826 3.158 3.606 5.35 6.943 5.35 3.336 0 6.115-2.191 6.941-5.35h3.295c5.977 0 10.75-4.807 10.75-10.781v-30.654c0-5.976-4.773-10.775-10.746-10.775h-94.443c-8.423 0-14.658 3.626-20.066 8.098l-1.319 1.075-.499.419c-4.674 3.892-5.965 5.122-10.918 9.881-2.316 2.228-4.242 4.317-5.768 6.212h-.004l-.062.064-.14.178c-.413.537-.784 1.076-1.13 1.609l-.238.365c-.357.572-.676 1.146-.953 1.723l-.158.342c-.239.529-.453 1.062-.627 1.6l-.094.27c-.184.594-.317 1.199-.42 1.816l-.062.422c-.083.636-.143 1.284-.143 1.954zm123.786 14.986c0-1.668 1.353-3.02 3.021-3.02s3.02 1.352 3.02 3.02c0 1.67-1.352 3.021-3.02 3.021-1.668.001-3.021-1.351-3.021-3.021zm-22.376 0c0-1.668 1.353-3.02 3.021-3.02s3.021 1.352 3.021 3.02c0 1.67-1.353 3.021-3.021 3.021s-3.021-1.351-3.021-3.021zm-41.902-28.908h.073v-7.942c0-1.985 1.544-3.638 3.528-3.638h65.817c1.982 0 3.709 1.652 3.709 3.638v7.88c0 1.982-1.727 3.641-3.709 3.641h-10.738l-1.112-10.417c-.052-.496-.503-.952-.998-.952h-.449c-.495 0-.944.456-.999.952l-1.109 10.417h-14.492l-1.109-10.417c-.055-.496-.503-.952-.996-.952h-.452c-.493 0-.942.456-.997.952l-1.11 10.417h-14.871l-1.112-10.417c-.053-.496-.499-.952-.996-.952h-.449c-.495 0-.946.456-1 .952l-1.111 10.417h-11.712c-1.986-.001-3.606-1.686-3.606-3.579zm-10.749 28.908c0-1.668 1.352-3.02 3.02-3.02 1.669 0 3.021 1.352 3.021 3.02 0 1.67-1.353 3.021-3.021 3.021-1.669.001-3.02-1.351-3.02-3.021zm-22.377 0c0-1.668 1.352-3.02 3.021-3.02s3.021 1.352 3.021 3.02c0 1.67-1.352 3.021-3.021 3.021s-3.021-1.351-3.021-3.021zm-13.239-25.33c1.005-1.053 2.156-2.309 3.521-3.621 5.612-5.394 6.434-6.179 12.538-11.227.128-.106.249-.1.374-.311h11.447c1.984 0 3.611 1.654 3.611 3.64v7.878c0 1.984-1.627 3.641-3.611 3.641h-27.88zm68.729-29.323c0-.506-.369-1.158-.824-1.468l-2.779-1.907c-.455-.31-1.273-.566-1.823-.566h-2.646l5.584-5.58c.223-.224.351-.53.351-.847s-.128-.623-.351-.847l-8.39-8.389c-.222-.224-.532-.353-.847-.353-.316 0-.627.129-.848.352l-8.391 8.389c-.467.468-.467 1.226 0 1.694l5.584 5.58h-2.645c-.549 0-1.367.252-1.821.562l-2.78 1.904c-.453.311-.823.97-.823 1.474 0 .505.448.904.997.904h21.455c.548 0 .997-.397.997-.902zm-11.46-3.941h-.529l-6.429-6.428 6.694-6.692 6.69 6.693-6.426 6.427z" fill="#350805"/></svg>